<?xml version="1.0" encoding="UTF-8"?>
<svg xmlns="http://www.w3.org/2000/svg" version="1.1" viewBox="0 0 841.9 595.3">
  <defs>
    <style>
      .cls-1 {
        fill: #9b8579;
      }

      .cls-2 {
        fill: #181818;
      }
    </style>
  </defs>
  <!-- Generator: Adobe Illustrator 28.7.1, SVG Export Plug-In . SVG Version: 1.2.0 Build 142)  -->
  <g>
    <g id="Layer_1">
      <path class="cls-2" d="M303,293.6c-2.1,0-3.6,1.7-3.6,3.8s1.6,3.7,3.6,3.7,3.7-1.6,3.7-3.7-1.6-3.7-3.7-3.7M306.6,304.6v-1.6h0c-.8,1.5-2.7,2.1-4.3,2.1-4.5,0-7.3-3.5-7.3-7.8s2.9-7.8,7.3-7.8,3.4.6,4.3,2.1h0v-1.6h4.4v14.6h-4.4Z"/>
      <polygon class="cls-2" points="314.9 285.1 314.9 290 312.8 290 312.8 293.3 314.9 293.3 314.9 304.6 319.3 304.6 319.3 293.3 321.4 293.3 321.4 290 319.3 290 319.3 285.1 314.9 285.1"/>
      <g>
        <path class="cls-2" d="M330.1,293.6c-2.1,0-3.6,1.7-3.6,3.8s1.6,3.7,3.6,3.7,3.7-1.6,3.7-3.7-1.6-3.7-3.7-3.7M333.8,304.6v-1.6h0c-.8,1.5-2.7,2.1-4.3,2.1-4.5,0-7.3-3.5-7.3-7.8s2.9-7.8,7.3-7.8,3.4.6,4.3,2.1h0v-1.6h4.4v14.6h-4.4Z"/>
        <path class="cls-2" d="M344.3,296.6v8h-4.4v-14.6h4.1v1.6h0c.8-1.5,2-2.1,3.7-2.1v4.4c-1.9,0-3.4.4-3.4,2.7"/>
      </g>
      <rect class="cls-2" x="349.2" y="290" width="4.4" height="14.6"/>
      <g>
        <path class="cls-2" d="M373.4,304.6v-7.8c0-1.6-.2-3.2-2.2-3.2s-2.4,1.4-2.4,3v8h-4.4v-7.9c0-1.5-.3-3.1-2.2-3.1s-2.5,1.5-2.5,3.2v7.8h-4.4v-14.6h4.1v1.6h0c.8-1.5,2.4-2.1,4-2.1s3.3.9,4.2,2.6c1.1-1.7,2.7-2.6,4.6-2.6s2.8.4,3.8,1.5c1.7,1.7,1.6,3.4,1.6,5.7v8h-4.4Z"/>
        <path class="cls-2" d="M387.5,293.6c-2.1,0-3.6,1.7-3.6,3.8s1.6,3.7,3.6,3.7,3.7-1.6,3.7-3.7-1.6-3.7-3.7-3.7M391.2,304.6v-1.6h0c-.8,1.5-2.7,2.1-4.3,2.1-4.5,0-7.3-3.5-7.3-7.8s2.9-7.8,7.3-7.8,3.4.6,4.3,2.1h0v-1.6h4.4v14.6h-4.4Z"/>
        <path class="cls-2" d="M404.9,293.2c-1.6,0-3,.9-3.3,2.5h6.6c-.3-1.6-1.7-2.5-3.3-2.5M412.5,298.6h-10.9c.3,1.7,1.7,2.8,3.4,2.8s1.9-.5,2.7-1.4h4.5c-1.3,2.9-3.8,5-7.1,5s-7.7-3.5-7.7-7.7,3.4-7.8,7.7-7.8,7.7,3.6,7.7,8,0,.8-.1,1.2"/>
        <path class="cls-1" d="M353.6,286.5c0,1.2-1,2.2-2.2,2.2s-2.2-1-2.2-2.2,1-2.2,2.2-2.2,2.2,1,2.2,2.2"/>
        <path class="cls-1" d="M294.4,302.4c0,1.2-1,2.2-2.2,2.2s-2.2-1-2.2-2.2,1-2.2,2.2-2.2,2.2,1,2.2,2.2"/>
      </g>
    </g>
  </g>
</svg>