<?xml version="1.0" encoding="UTF-8"?>
<svg xmlns="http://www.w3.org/2000/svg" version="1.1" viewBox="0 0 841.9 595.3">
  <defs>
    <style>
      .cls-1 {
        fill: #9b8579;
      }

      .cls-2 {
        fill: #181818;
      }
    </style>
  </defs>
  <!-- Generator: Adobe Illustrator 28.7.1, SVG Export Plug-In . SVG Version: 1.2.0 Build 142)  -->
  <g>
    <g id="Layer_1">
      <path class="cls-2" d="M303,293.6c-2.1,0-3.6,1.7-3.6,3.8s1.6,3.7,3.6,3.7,3.7-1.6,3.7-3.7-1.6-3.7-3.7-3.7M306.6,304.6v-1.6h0c-.8,1.5-2.7,2.1-4.3,2.1-4.5,0-7.3-3.5-7.3-7.8s2.9-7.8,7.3-7.8,3.4.6,4.3,2.1h0v-1.6h4.4v14.6h-4.4Z"/>
      <polygon class="cls-2" points="314.9 285.1 314.9 290 312.8 290 312.8 293.3 314.9 293.3 314.9 304.6 319.3 304.6 319.3 293.3 321.4 293.3 321.4 290 319.3 290 319.3 285.1 314.9 285.1"/>
      <g>
        <path class="cls-2" d="M330.1,293.6c-2.1,0-3.6,1.7-3.6,3.8s1.6,3.7,3.6,3.7,3.7-1.6,3.7-3.7-1.6-3.7-3.7-3.7M333.8,304.6v-1.6h0c-.8,1.5-2.7,2.1-4.3,2.1-4.5,0-7.3-3.5-7.3-7.8s2.9-7.8,7.3-7.8,3.4.6,4.3,2.1h0v-1.6h4.4v14.6h-4.4Z"/>
        <path class="cls-2" d="M344.3,296.6v8h-4.4v-14.6h4.1v1.6h0c.8-1.5,2-2.1,3.7-2.1v4.4c-1.9,0-3.4.4-3.4,2.7"/>
      </g>
      <rect class="cls-2" x="349.2" y="290" width="4.4" height="14.6"/>
      <g>
        <path class="cls-2" d="M373.4,304.6v-7.8c0-1.6-.2-3.2-2.2-3.2s-2.4,1.4-2.4,3v8h-4.4v-7.9c0-1.5-.3-3.1-2.2-3.1s-2.5,1.5-2.5,3.2v7.8h-4.4v-14.6h4.1v1.6h0c.8-1.5,2.4-2.1,4-2.1s3.3.9,4.2,2.6c1.1-1.7,2.7-2.6,4.6-2.6s2.8.4,3.8,1.5c1.7,1.7,1.6,3.4,1.6,5.7v8h-4.4Z"/>
        <path class="cls-2" d="M387.5,293.6c-2.1,0-3.6,1.7-3.6,3.8s1.6,3.7,3.6,3.7,3.7-1.6,3.7-3.7-1.6-3.7-3.7-3.7M391.2,304.6v-1.6h0c-.8,1.5-2.7,2.1-4.3,2.1-4.5,0-7.3-3.5-7.3-7.8s2.9-7.8,7.3-7.8,3.4.6,4.3,2.1h0v-1.6h4.4v14.6h-4.4Z"/>
        <path class="cls-2" d="M404.9,293.2c-1.6,0-3,.9-3.3,2.5h6.6c-.3-1.6-1.7-2.5-3.3-2.5M412.5,298.6h-10.9c.3,1.7,1.7,2.8,3.4,2.8s1.9-.5,2.7-1.4h4.5c-1.3,2.9-3.8,5-7.1,5s-7.7-3.5-7.7-7.7,3.4-7.8,7.7-7.8,7.7,3.6,7.7,8,0,.8-.1,1.2"/>
        <path class="cls-1" d="M353.6,286.5c0,1.2-1,2.2-2.2,2.2s-2.2-1-2.2-2.2,1-2.2,2.2-2.2,2.2,1,2.2,2.2"/>
        <path class="cls-1" d="M294.4,302.4c0,1.2-1,2.2-2.2,2.2s-2.2-1-2.2-2.2,1-2.2,2.2-2.2,2.2,1,2.2,2.2"/>
        <path class="cls-1" d="M422.2,289.5h3.9l-4.9,15.1h-3.9l4.9-15.1Z"/>
        <path class="cls-1" d="M430,289.5h3.9l-4.9,15.1h-3.9l4.9-15.1Z"/>
        <path class="cls-1" d="M436.7,289.5h4l2.1,10.1,2.3-10.1h3.1l2.3,10.2,2.1-10.2h4l-4.1,15.6h-3.5l-2.4-10.1-2.3,10.1h-3.6l-4-15.6Z"/>
        <path class="cls-1" d="M457.2,299.2c0-2.8,2-6.2,6.3-6.2s6.3,3.3,6.3,6.2-2,6.2-6.3,6.2-6.3-3.3-6.3-6.2h0ZM460.7,299.2c0,1.7,1.3,2.9,2.8,2.9s2.8-1.2,2.8-2.9-1.3-2.9-2.8-2.9-2.8,1.2-2.8,2.9h0Z"/>
        <path class="cls-1" d="M472,293.4h3.3v1.3c.3-.6.9-1.7,3-1.7v3.5h-.1c-1.8,0-2.6.7-2.6,2.3v6.3h-3.5v-11.7Z"/>
        <path class="cls-1" d="M480,289.5h3.5v8.1l3.3-4.2h4.1l-4.4,5.1,4.3,6.5h-4l-3.3-5.6v5.6h-3.5v-15.6Z"/>
        <path class="cls-1" d="M496.8,296v9h-3.5v-9h-1.3v-2.7h1.3v-.5c0-3.4,2.5-3.7,5-3.7v2.6c-.7,0-1.5,0-1.5,1.1v.4h3v-3.9h3.5v15.6h-3.5v-9h-3Z"/>
        <path class="cls-1" d="M505.5,299.2c0-2.8,2-6.2,6.3-6.2s6.3,3.3,6.3,6.2-2,6.2-6.3,6.2-6.3-3.3-6.3-6.2h0ZM509,299.2c0,1.7,1.3,2.9,2.8,2.9s2.8-1.2,2.8-2.9-1.3-2.9-2.8-2.9-2.8,1.2-2.8,2.9h0Z"/>
        <path class="cls-1" d="M518.8,293.4h3.6l1.8,7.3,1.9-7.3h2.9l2,7.3,1.7-7.3h3.6l-3.6,11.7h-3.2l-2-7.6-2,7.6h-3.2l-3.6-11.7Z"/>
      </g>
    </g>
  </g>
</svg>